<svg width="131" height="130" viewBox="0 0 131 130" fill="none" xmlns="http://www.w3.org/2000/svg">
<path d="M65.6412 129.584C101.342 129.584 130.282 100.643 130.282 64.9425C130.282 29.2421 101.342 0.30127 65.6412 0.30127C29.9409 0.30127 1 29.2421 1 64.9425C1 100.643 29.9409 129.584 65.6412 129.584Z" fill="url(#paint0_radial_231_10169)"/>
<path opacity="0.477214" fill-rule="evenodd" clip-rule="evenodd" d="M53.4518 1.44897C23.5791 7.14952 1 33.4092 1 64.9426C1 88.629 13.7398 109.34 32.7411 120.597C61.3001 113.153 82.3794 87.1862 82.3794 56.296C82.3794 33.52 70.9198 13.4205 53.4518 1.44897Z" fill="url(#paint1_linear_231_10169)"/>
<path fill-rule="evenodd" clip-rule="evenodd" d="M13.3173 102.907C13.5725 101.642 13.8048 100.17 14.0541 98.5919C14.9533 92.8964 16.0716 85.8134 19.2675 82.0815C25.7201 74.5467 28.913 68.6497 28.4426 64.9892C27.7187 59.3574 23.7723 57.6887 16.5115 56.0073C12.4164 55.0591 7.27081 50.5843 3.5624 46.8627C1.8943 52.6001 1 58.6668 1 64.9425C1 79.1285 5.56968 92.2471 13.3173 102.907Z" fill="#FDFEFF" fill-opacity="0.191597"/>
<path d="M14.0541 98.5919L13.8071 98.553L14.0541 98.5919ZM13.3173 102.907L13.1151 103.054L13.4498 103.514L13.5624 102.956L13.3173 102.907ZM19.2675 82.0815L19.4574 82.2441L19.2675 82.0815ZM28.4426 64.9892L28.6905 64.9573L28.4426 64.9892ZM16.5115 56.0073L16.4551 56.2509L16.5115 56.0073ZM3.5624 46.8627L3.7395 46.6862L3.44058 46.3862L3.32235 46.7929L3.5624 46.8627ZM13.8071 98.553C13.5577 100.133 13.3261 101.599 13.0723 102.857L13.5624 102.956C13.8188 101.686 14.052 100.208 14.301 98.6309L13.8071 98.553ZM19.0776 81.9189C17.4427 83.828 16.3524 86.5756 15.5581 89.5356C14.7626 92.4997 14.2564 95.7076 13.8071 98.553L14.301 98.6309C14.751 95.7808 15.2535 92.5994 16.041 89.6652C16.8295 86.7268 17.8963 84.067 19.4574 82.2441L19.0776 81.9189ZM28.1946 65.021C28.4197 66.7722 27.7697 69.104 26.231 71.964C24.6967 74.8161 22.2976 78.1589 19.0776 81.9189L19.4574 82.2441C22.6901 78.4693 25.1137 75.0962 26.6714 72.2009C28.2247 69.3136 28.9359 66.8666 28.6905 64.9573L28.1946 65.021ZM16.4551 56.2509C20.0875 57.092 22.847 57.9217 24.7891 59.2245C26.71 60.513 27.8412 62.2718 28.1946 65.021L28.6905 64.9573C28.32 62.0747 27.1162 60.1833 25.0676 58.8092C23.0403 57.4493 20.1963 56.604 16.5679 55.7638L16.4551 56.2509ZM3.38531 47.0391C5.244 48.9044 7.46675 50.9625 9.74159 52.6748C12.0111 54.383 14.3554 55.7647 16.4551 56.2509L16.5679 55.7638C14.5725 55.3017 12.2964 53.9719 10.0423 52.2753C7.79345 50.5826 5.58921 48.5425 3.7395 46.6862L3.38531 47.0391ZM3.32235 46.7929C1.64771 52.5527 0.75 58.643 0.75 64.9425H1.25C1.25 58.6907 2.14088 52.6474 3.80246 46.9325L3.32235 46.7929ZM0.75 64.9425C0.75 79.183 5.33744 92.3528 13.1151 103.054L13.5195 102.76C5.80191 92.1414 1.25 79.0739 1.25 64.9425H0.75Z" fill="#9BBBFF"/>
<path fill-rule="evenodd" clip-rule="evenodd" d="M17.1199 107.654C18.2333 98.566 20.3541 88.0428 24.3429 84.2674C40.2264 69.2333 34.3843 56.1978 21.9995 51.8302C13.5681 48.8568 8.71371 44.4984 6.01023 39.9465C13.5443 21.9945 28.9485 8.16161 47.906 2.76462C49.8179 13.8292 54.6809 32.7504 65.6412 33.4243C72.6418 33.8548 77.526 33.3535 81.7648 32.9184C86.9247 32.3888 91.1283 31.9574 97.0293 33.4243C102.138 34.6944 105.54 39.402 108.857 43.9925C112.518 49.0599 116.077 53.9845 121.715 53.9845C125.079 53.9845 127.267 52.5593 128.686 50.6012C129.731 55.2139 130.282 60.0139 130.282 64.9426C130.282 75.324 127.835 85.1337 123.486 93.8265C122.795 93.6719 122.077 93.4995 121.326 93.3193C117.49 92.3989 112.807 91.2754 106.646 91.2754C94.6668 91.2754 82.3972 99.535 70.2396 107.719C63.6408 112.162 57.075 116.582 50.6064 119.647C46.3966 121.641 42.297 122.885 38.4778 123.617C30.2838 119.817 23.0195 114.351 17.1199 107.654Z" fill="url(#paint2_linear_231_10169)"/>
<path d="M17.1199 107.654L16.8718 107.624L16.8581 107.735L16.9323 107.819L17.1199 107.654ZM24.3429 84.2674L24.5147 84.4489L24.3429 84.2674ZM21.9995 51.8302L22.0826 51.5944L21.9995 51.8302ZM6.01023 39.9465L5.77971 39.8498L5.73098 39.9659L5.79529 40.0742L6.01023 39.9465ZM47.906 2.76462L48.1524 2.72205L48.105 2.44803L47.8376 2.52418L47.906 2.76462ZM65.6412 33.4243L65.6258 33.6739L65.6412 33.4243ZM81.7648 32.9184L81.7393 32.6697L81.7648 32.9184ZM97.0293 33.4243L96.969 33.6669L97.0293 33.4243ZM108.857 43.9925L108.654 44.1389L108.857 43.9925ZM128.686 50.6012L128.93 50.546L128.808 50.0071L128.484 50.4546L128.686 50.6012ZM123.486 93.8265L123.432 94.0705L123.622 94.1132L123.71 93.9384L123.486 93.8265ZM121.326 93.3193L121.267 93.5624L121.326 93.3193ZM70.2396 107.719L70.0999 107.512L70.2396 107.719ZM50.6064 119.647L50.7134 119.873L50.6064 119.647ZM38.4778 123.617L38.3726 123.843L38.4457 123.877L38.5248 123.862L38.4778 123.617ZM17.3681 107.685C17.924 103.146 18.7308 98.2568 19.8941 94.0349C21.0612 89.7995 22.5745 86.2853 24.5147 84.4489L24.171 84.0858C22.1225 86.0248 20.581 89.6599 19.4121 93.9021C18.2395 98.1576 17.4291 103.074 16.8718 107.624L17.3681 107.685ZM24.5147 84.4489C32.4891 76.9011 35.0618 69.8041 34.0179 64.0046C32.9741 58.206 28.3316 53.7981 22.0826 51.5944L21.9163 52.0659C28.0522 54.2298 32.5232 58.5235 33.5258 64.0931C34.5282 69.6618 32.0802 76.5996 24.171 84.0858L24.5147 84.4489ZM22.0826 51.5944C13.6978 48.6375 8.89438 44.313 6.22518 39.8188L5.79529 40.0742C8.53305 44.6838 13.4383 49.0761 21.9163 52.0659L22.0826 51.5944ZM47.8376 2.52418C28.8063 7.94217 13.3429 21.8284 5.77971 39.8498L6.24076 40.0432C13.7457 22.1606 29.0907 8.38105 47.9745 3.00507L47.8376 2.52418ZM47.6597 2.80719C48.6168 8.34642 50.3149 15.8678 53.153 22.0947C55.9815 28.3005 59.9927 33.3275 65.6258 33.6739L65.6565 33.1748C60.3294 32.8473 56.429 28.0767 53.6079 21.8873C50.7965 15.7189 49.1071 8.24737 48.1524 2.72205L47.6597 2.80719ZM65.6258 33.6739C72.6478 34.1056 77.5486 33.6025 81.7903 33.1671L81.7393 32.6697C77.5034 33.1045 72.6359 33.6039 65.6565 33.1748L65.6258 33.6739ZM81.7903 33.1671C86.9483 32.6377 91.1138 32.2114 96.969 33.6669L97.0896 33.1817C91.1428 31.7034 86.9012 32.1399 81.7393 32.6697L81.7903 33.1671ZM96.969 33.6669C99.4638 34.2871 101.553 35.749 103.438 37.6397C105.325 39.5326 106.993 41.8402 108.654 44.1389L109.059 43.8461C107.403 41.5542 105.712 39.2128 103.792 37.2867C101.87 35.3585 99.7037 33.8315 97.0896 33.1817L96.969 33.6669ZM108.654 44.1389C110.481 46.6673 112.301 49.1883 114.377 51.0738C116.458 52.9647 118.814 54.2345 121.715 54.2345V53.7345C118.978 53.7345 116.736 52.542 114.713 50.7038C112.684 48.8601 110.894 46.3851 109.059 43.8461L108.654 44.1389ZM121.715 54.2345C125.164 54.2345 127.425 52.7673 128.888 50.7479L128.484 50.4546C127.109 52.3512 124.995 53.7345 121.715 53.7345V54.2345ZM130.532 64.9426C130.532 59.9951 129.979 55.1767 128.93 50.546L128.442 50.6565C129.483 55.2512 130.032 60.0326 130.032 64.9426H130.532ZM123.71 93.9384C128.076 85.2117 130.532 75.3637 130.532 64.9426H130.032C130.032 75.2843 127.595 85.0558 123.263 93.7147L123.71 93.9384ZM123.541 93.5826C122.852 93.4284 122.135 93.2564 121.384 93.0761L121.267 93.5624C122.018 93.7425 122.739 93.9153 123.432 94.0705L123.541 93.5826ZM121.384 93.0761C117.546 92.1554 112.839 91.0254 106.646 91.0254V91.5254C112.776 91.5254 117.434 92.6425 121.267 93.5624L121.384 93.0761ZM106.646 91.0254C100.601 91.0254 94.4975 93.1091 88.3966 96.2053C82.2958 99.3015 76.1759 103.422 70.0999 107.512L70.3792 107.927C76.4609 103.833 82.5546 99.7309 88.6229 96.6512C94.6911 93.5715 100.713 91.5254 106.646 91.5254V91.0254ZM70.0999 107.512C63.4974 111.957 56.9477 116.365 50.4993 119.421L50.7134 119.873C57.2023 116.798 63.7842 112.366 70.3792 107.927L70.0999 107.512ZM50.4993 119.421C46.3102 121.406 42.2309 122.643 38.4307 123.371L38.5248 123.862C42.3631 123.127 46.4831 121.877 50.7134 119.873L50.4993 119.421ZM16.9323 107.819C22.8546 114.542 30.1468 120.029 38.3726 123.843L38.5829 123.39C30.4207 119.605 23.1845 114.16 17.3075 107.489L16.9323 107.819Z" fill="#9BBBFF"/>
<path fill-rule="evenodd" clip-rule="evenodd" d="M15.397 24.2696C15.0684 30.4423 17.1435 42.8255 37.7303 47.5618C56.0904 51.7858 49.0055 70.3277 42.8555 86.4227C39.6564 94.7952 36.7102 102.506 37.7303 107.194C40.7116 120.895 55.0989 112.876 65.6412 103.218C76.1836 93.5587 87.6676 85.1047 100.34 85.1047C113.013 85.1047 120.981 84.9815 125.632 78.7079C130.282 72.4342 126.715 63.5491 116.777 59.8059C111.647 57.8735 107.55 53.4783 103.771 49.426C100.231 45.6286 96.9711 42.1322 93.4057 41.2456C90.0645 40.4148 84.5599 40.2459 78.2908 40.0534C70.7309 39.8213 62.0593 39.5551 54.729 38.0531C43.7612 35.8058 37.4158 15.192 35.4688 7.76038C27.7075 11.8642 20.8824 17.5018 15.397 24.2696Z" fill="url(#paint3_linear_231_10169)"/>
<path d="M37.7303 47.5618L37.7864 47.3182L37.7303 47.5618ZM15.397 24.2696L15.2028 24.1122L15.1516 24.1753L15.1473 24.2563L15.397 24.2696ZM42.8555 86.4227L42.622 86.3335L42.8555 86.4227ZM37.7303 107.194L37.9746 107.141L37.7303 107.194ZM65.6412 103.218L65.4723 103.033L65.6412 103.218ZM125.632 78.7079L125.431 78.559L125.632 78.7079ZM116.777 59.8059L116.866 59.5719L116.777 59.8059ZM103.771 49.426L103.589 49.5965L103.771 49.426ZM93.4057 41.2456L93.466 41.003L93.4057 41.2456ZM78.2908 40.0534L78.2831 40.3033L78.2908 40.0534ZM54.729 38.0531L54.6788 38.298L54.729 38.0531ZM35.4688 7.76038L35.7106 7.69702L35.6307 7.39197L35.3519 7.53937L35.4688 7.76038ZM37.7864 47.3182C27.5392 44.9606 21.9345 40.7093 18.9267 36.3132C15.9165 31.9134 15.4842 27.3347 15.6466 24.2829L15.1473 24.2563C14.9812 27.3773 15.4222 32.0765 18.5141 36.5955C21.6084 41.1182 27.3347 45.4266 37.6743 47.8054L37.7864 47.3182ZM43.0891 86.512C46.1589 78.478 49.4874 69.7753 49.7341 62.5492C49.8577 58.9289 49.2096 55.6518 47.346 53.0084C45.4801 50.3619 42.4197 48.3841 37.7864 47.3182L37.6743 47.8054C42.221 48.8515 45.16 50.7755 46.9373 53.2965C48.7169 55.8207 49.3557 58.977 49.2344 62.5321C48.9911 69.6567 45.7022 78.2724 42.622 86.3335L43.0891 86.512ZM37.9746 107.141C37.4786 104.861 37.9437 101.814 38.9512 98.2581C39.9565 94.7107 41.4883 90.7012 43.0891 86.512L42.622 86.3335C41.0236 90.5168 39.4827 94.5487 38.4702 98.1218C37.4599 101.687 36.9619 104.838 37.486 107.247L37.9746 107.141ZM65.4723 103.033C60.2084 107.856 54.0115 112.242 48.7822 113.725C46.1699 114.466 43.8366 114.472 41.9837 113.49C40.1373 112.512 38.7103 110.522 37.9746 107.141L37.486 107.247C38.241 110.717 39.7304 112.862 41.7496 113.932C43.7622 114.999 46.2435 114.965 48.9186 114.206C54.2638 112.691 60.5316 108.238 65.8101 103.402L65.4723 103.033ZM100.34 84.8547C87.5617 84.8547 76.0133 93.3756 65.4723 103.033L65.8101 103.402C76.3538 93.7418 87.7735 85.3547 100.34 85.3547V84.8547ZM125.431 78.559C123.153 81.6314 120.062 83.2066 115.946 84.0136C111.818 84.8229 106.684 84.8547 100.34 84.8547V85.3547C106.67 85.3547 111.856 85.3249 116.042 84.5042C120.241 83.6812 123.459 82.0579 125.832 78.8567L125.431 78.559ZM116.689 60.0398C121.608 61.8925 124.926 65.0084 126.447 68.41C127.965 71.8068 127.699 75.4997 125.431 78.559L125.832 78.8567C128.215 75.6423 128.49 71.7559 126.903 68.2059C125.318 64.6607 121.884 61.4625 116.866 59.5719L116.689 60.0398ZM103.589 49.5965C107.357 53.6385 111.494 58.083 116.689 60.0398L116.866 59.5719C111.8 57.664 107.742 53.3182 103.954 49.2555L103.589 49.5965ZM93.3454 41.4882C95.073 41.9178 96.7441 42.9849 98.4352 44.4341C100.126 45.8828 101.816 47.6951 103.589 49.5965L103.954 49.2555C102.186 47.3594 100.476 45.5249 98.7606 44.0544C97.0452 42.5844 95.3038 41.46 93.466 41.003L93.3454 41.4882ZM78.2831 40.3033C84.5663 40.4962 90.0369 40.6656 93.3454 41.4882L93.466 41.003C90.0922 40.1641 84.5535 39.9956 78.2985 39.8035L78.2831 40.3033ZM54.6788 38.298C62.0342 39.8052 70.7286 40.0714 78.2831 40.3033L78.2985 39.8035C70.7333 39.5713 62.0844 39.3051 54.7791 37.8082L54.6788 38.298ZM35.227 7.82374C36.2021 11.5459 38.2805 18.5768 41.4927 24.9632C43.0989 28.1563 44.9932 31.198 47.182 33.5858C49.3702 35.9729 51.867 37.7219 54.6788 38.298L54.7791 37.8082C52.107 37.2607 49.6977 35.5903 47.5506 33.2479C45.4042 30.9064 43.534 27.9087 41.9394 24.7385C38.7503 18.3983 36.6825 11.4065 35.7106 7.69702L35.227 7.82374ZM35.3519 7.53937C27.5606 11.659 20.7092 17.3184 15.2028 24.1122L15.5912 24.427C21.0555 17.6852 27.8544 12.0693 35.5857 7.98139L35.3519 7.53937Z" fill="#9BBBFF"/>
<path opacity="0.395206" fill-rule="evenodd" clip-rule="evenodd" d="M120.728 31.1032C109.351 12.6225 88.935 0.301331 65.6411 0.301331C61.7571 0.301331 57.9532 0.643874 54.2578 1.3004C57.3461 12.0345 64.8783 30.8682 79.1427 27.6744C96.7424 23.7339 98.8553 25.4096 108.11 32.7494C109.25 33.6536 110.499 34.6437 111.898 35.7199C117.441 39.9836 119.815 36.456 120.728 31.1032Z" fill="url(#paint4_linear_231_10169)"/>
<path opacity="0.395206" fill-rule="evenodd" clip-rule="evenodd" d="M114.224 22.3007C102.377 8.81396 85.0032 0.301331 65.6413 0.301331C64.011 0.301331 62.3949 0.36168 60.7949 0.480268C63.247 9.04754 69.2709 24.2266 80.716 21.6634C94.7861 18.5123 96.4753 19.8523 103.874 25.7217C104.786 26.4447 105.784 27.2364 106.902 28.097C112.029 32.0415 113.765 27.6469 114.224 22.3007Z" fill="url(#paint5_linear_231_10169)"/>
<path opacity="0.21317" fill-rule="evenodd" clip-rule="evenodd" d="M119.911 100.075C108.39 117.835 88.3877 129.584 65.6414 129.584C59.0874 129.584 52.7613 128.608 46.8003 126.795C51.0974 124.922 58.5706 121.578 61.4807 119.748C63.5189 118.465 65.5286 117.183 67.5053 115.921C78.2174 109.082 87.9605 102.862 96.0278 100.724C110.45 96.9017 117.414 98.9052 119.911 100.075Z" fill="url(#paint6_linear_231_10169)"/>
<path opacity="0.342773" fill-rule="evenodd" clip-rule="evenodd" d="M118.056 102.782C114.526 103.26 110.544 104.018 106.157 105.181C89.1751 109.68 72.0537 126.175 68.72 129.512C89.0221 128.56 106.875 118.242 118.056 102.782Z" fill="url(#paint7_linear_231_10169)"/>
<path opacity="0.563988" d="M120.316 43.5958C122.832 44.9337 124.23 47.2247 123.439 48.7129C123.248 49.072 122.947 49.3515 122.565 49.5502C122.843 50.1235 122.89 50.6905 122.646 51.1504C122.078 52.2191 120.147 52.3041 118.335 51.3402C116.694 50.4682 115.712 49.0364 115.961 47.98C114.424 46.676 113.71 45.0279 114.327 43.8677C115.118 42.3796 117.799 42.2578 120.316 43.5958Z" fill="#D0D4FF"/>
<path d="M119.859 43.9816C122.376 45.3195 123.774 47.6105 122.983 49.0987C122.792 49.4578 122.491 49.7373 122.109 49.936C122.387 50.5094 122.434 51.0764 122.19 51.5362C121.621 52.6049 119.691 52.6899 117.878 51.726C116.238 50.854 115.256 49.4222 115.505 48.3658C113.968 47.0618 113.254 45.4137 113.871 44.2535C114.662 42.7654 117.343 42.6436 119.859 43.9816Z" fill="#5E8ACD" fill-opacity="0.742652"/>
<path d="M121.976 43.4871C124.648 44.9078 126.136 47.3348 125.299 48.908C125.097 49.2876 124.778 49.5828 124.373 49.7923C124.669 50.3997 124.721 50.9997 124.462 51.4858C123.943 52.4624 122.343 52.6592 120.675 52.0335C122.117 52.4128 123.414 52.1576 123.871 51.2972C124.13 50.8112 124.078 50.2111 123.782 49.6038C124.187 49.3943 124.506 49.0991 124.708 48.7194C125.545 47.1463 124.057 44.7192 121.385 43.2985C120.986 43.0867 120.584 42.9092 120.185 42.7657C120.775 42.9299 121.379 43.1701 121.976 43.4871Z" fill="#5E8ACD" fill-opacity="0.742652"/>
<path d="M76.0094 16.4501C78.1648 17.2681 80.0072 15.707 80.0072 15.3239C80.0072 14.9409 78.4174 14.6304 76.4561 14.6304C74.4949 14.6304 72.905 14.9409 72.905 15.3239C72.905 15.707 73.8539 15.6322 76.0094 16.4501Z" fill="black" fill-opacity="0.28827"/>
<path d="M72.5457 14.9259C73.0314 16.0672 74.872 14.6768 75.2702 15.1944C75.6684 15.7121 75.4666 16.1528 76.3651 16.2607C77.2636 16.3687 77.3521 15.3839 78.2359 15.3297C79.1197 15.2756 79.6433 15.4771 79.9512 14.551C80.2592 13.6249 78.8354 13.2408 78.7626 12.8665C78.6899 12.4922 78.7177 11.5213 78.0925 11.376C77.4673 11.2306 77.214 11.2491 75.787 12.091C74.3601 12.9329 72.0601 13.7845 72.5457 14.9259Z" fill="#D0D4FF"/>
<path opacity="0.395206" d="M75.728 12.1257L75.9933 11.9705C77.2411 11.2473 77.4993 11.2375 78.0933 11.3757C78.2312 11.4077 78.3373 11.4799 78.4197 11.577C78.0762 11.5368 77.7029 11.5983 77.2999 11.7613L77.2364 11.7882C76.666 12.0387 75.0836 12.9439 72.489 14.504C72.629 13.5829 74.482 12.8493 75.728 12.1257Z" fill="url(#paint8_linear_231_10169)"/>
<path opacity="0.21317" d="M78.656 12.1238L78.6592 12.1387C78.718 12.4159 78.7304 12.7001 78.7628 12.8665C78.7738 12.9234 78.8161 12.9805 78.8788 13.0397C78.5455 13.0876 78.3346 13.1916 78.2461 13.3515C77.9572 13.874 78.4814 14.1594 78.3625 14.7536C78.3329 14.9019 78.2621 15.0968 78.1502 15.3383C77.3454 15.4488 77.2336 16.3651 76.3653 16.2607C75.6986 16.1806 75.6376 15.9173 75.4879 15.5754C75.8279 15.4645 76.0697 15.3299 76.2136 15.1713C76.6281 14.7145 76.1927 13.0696 77.0581 12.5293C77.4603 12.2781 77.9929 12.143 78.656 12.1238Z" fill="url(#paint9_linear_231_10169)"/>
<path d="M106.604 23.1686C107.603 23.7683 108.629 23.8925 108.898 23.446C109.166 22.9994 108.357 22.5133 107.576 21.5515C106.795 20.5898 105.551 20.8276 105.283 21.2741C105.015 21.7206 105.606 22.5688 106.604 23.1686Z" fill="#D0D4FF"/>
<path opacity="0.21317" d="M106.433 23.454C107.431 24.0537 108.458 24.1779 108.726 23.7314C108.995 23.2848 108.203 22.7696 107.405 21.8369C106.607 20.9042 105.38 21.113 105.112 21.5595C104.843 22.006 105.435 22.8542 106.433 23.454Z" fill="url(#paint10_linear_231_10169)"/>
<path fill-rule="evenodd" clip-rule="evenodd" d="M54.8873 93.8342C61.2577 101.598 78.6118 72.4429 104.797 79.0661C114.544 81.5316 128.374 74.7074 114.654 66.3675C100.934 58.0276 95.1285 45.9142 78.6118 49.2062C62.0951 52.4982 51.232 43.7021 58.4366 56.296C65.6412 68.8898 48.5169 86.0707 54.8873 93.8342Z" fill="url(#paint11_linear_231_10169)" stroke="#9BBBFF" stroke-width="0.5"/>
<defs>
<radialGradient id="paint0_radial_231_10169" cx="0" cy="0" r="1" gradientUnits="userSpaceOnUse" gradientTransform="translate(175.348 88.8248) rotate(-162.22) scale(178.232 176.535)">
<stop stop-color="#2B71CF"/>
<stop offset="1" stop-color="#D0D4FF"/>
</radialGradient>
<linearGradient id="paint1_linear_231_10169" x1="78.3383" y1="3.20702" x2="3.75522" y2="3.20702" gradientUnits="userSpaceOnUse">
<stop stop-color="white" stop-opacity="0.01"/>
<stop offset="1" stop-color="white"/>
</linearGradient>
<linearGradient id="paint2_linear_231_10169" x1="6.75071" y1="97.6518" x2="119.006" y2="132.894" gradientUnits="userSpaceOnUse">
<stop stop-color="white" stop-opacity="0.218859"/>
<stop offset="1" stop-color="#5271D6" stop-opacity="0.0742188"/>
</linearGradient>
<linearGradient id="paint3_linear_231_10169" x1="-28.1537" y1="108.22" x2="122.265" y2="221.545" gradientUnits="userSpaceOnUse">
<stop stop-color="white" stop-opacity="0.218859"/>
<stop offset="1" stop-color="#5271D6" stop-opacity="0.0742188"/>
</linearGradient>
<linearGradient id="paint4_linear_231_10169" x1="181.076" y1="45.1151" x2="159.104" y2="-33.3487" gradientUnits="userSpaceOnUse">
<stop stop-color="#5D9CFF"/>
<stop offset="1" stop-color="#D0D4FF"/>
</linearGradient>
<linearGradient id="paint5_linear_231_10169" x1="177.377" y1="45.0972" x2="159.354" y2="-22.9445" gradientUnits="userSpaceOnUse">
<stop stop-color="#5D9CFF"/>
<stop offset="1" stop-color="#D0D4FF"/>
</linearGradient>
<linearGradient id="paint6_linear_231_10169" x1="143.765" y1="128.763" x2="138.621" y2="94.8483" gradientUnits="userSpaceOnUse">
<stop stop-color="#5D9CFF"/>
<stop offset="1" stop-color="#D0D4FF"/>
</linearGradient>
<linearGradient id="paint7_linear_231_10169" x1="139.694" y1="133.093" x2="131.705" y2="107.799" gradientUnits="userSpaceOnUse">
<stop stop-color="#656776"/>
<stop offset="1" stop-color="#A3BEFF"/>
</linearGradient>
<linearGradient id="paint8_linear_231_10169" x1="76.0348" y1="15.1003" x2="77.4232" y2="8.77349" gradientUnits="userSpaceOnUse">
<stop stop-color="#5D9CFF"/>
<stop offset="1" stop-color="#D0D4FF"/>
</linearGradient>
<linearGradient id="paint9_linear_231_10169" x1="81.2831" y1="14.7827" x2="82.2512" y2="10.5179" gradientUnits="userSpaceOnUse">
<stop stop-color="#5D9CFF"/>
<stop offset="1" stop-color="#D0D4FF"/>
</linearGradient>
<linearGradient id="paint10_linear_231_10169" x1="110.317" y1="25.4381" x2="112.013" y2="23.618" gradientUnits="userSpaceOnUse">
<stop stop-color="#5D9CFF"/>
<stop offset="1" stop-color="#D0D4FF"/>
</linearGradient>
<linearGradient id="paint11_linear_231_10169" x1="1.27309" y1="106.633" x2="107.204" y2="183.81" gradientUnits="userSpaceOnUse">
<stop stop-color="white" stop-opacity="0.218859"/>
<stop offset="1" stop-color="#5271D6" stop-opacity="0.0742188"/>
</linearGradient>
</defs>
</svg>
